<svg width="36" height="36" viewBox="0 0 36 36" fill="none" xmlns="http://www.w3.org/2000/svg">
<rect width="36" height="36" rx="4" fill="#CCDAFF" fill-opacity="0.6"/>
<path d="M13 16.3333V14.6667C13 11.9083 13.8333 9.66666 18 9.66666C22.1667 9.66666 23 11.9083 23 14.6667V16.3333" stroke="#2C66FE" stroke-linecap="round" stroke-linejoin="round"/>
<path d="M18 23.4167C19.1506 23.4167 20.0833 22.4839 20.0833 21.3333C20.0833 20.1827 19.1506 19.25 18 19.25C16.8494 19.25 15.9167 20.1827 15.9167 21.3333C15.9167 22.4839 16.8494 23.4167 18 23.4167Z" stroke="#2C66FE" stroke-linecap="round" stroke-linejoin="round"/>
<path d="M22.1667 26.3333H13.8333C10.5 26.3333 9.66667 25.5 9.66667 22.1667V20.5C9.66667 17.1667 10.5 16.3333 13.8333 16.3333H22.1667C25.5 16.3333 26.3333 17.1667 26.3333 20.5V22.1667C26.3333 25.5 25.5 26.3333 22.1667 26.3333Z" stroke="#2C66FE" stroke-linecap="round" stroke-linejoin="round"/>
</svg>
