<svg width="36" height="36" viewBox="0 0 36 36" fill="none" xmlns="http://www.w3.org/2000/svg">
<rect width="36" height="36" rx="4" fill="#CCDAFF" fill-opacity="0.6"/>
<path d="M22.7928 13.875C22.5928 13.8416 22.3845 13.8333 22.1678 13.8333H13.8345C13.6012 13.8333 13.3762 13.85 13.1595 13.8833C13.2762 13.65 13.4428 13.4333 13.6428 13.2333L16.3512 10.5167C17.4928 9.38333 19.3428 9.38333 20.4845 10.5167L21.9428 11.9916C22.4762 12.5166 22.7595 13.1833 22.7928 13.875Z" stroke="#2C66FE" stroke-linecap="round" stroke-linejoin="round"/>
<path d="M15.5 23.8333C15.5 24.4583 15.325 25.05 15.0167 25.55C14.4417 26.5167 13.3833 27.1667 12.1667 27.1667C10.95 27.1667 9.89166 26.5167 9.31666 25.55C9.00833 25.05 8.83333 24.4583 8.83333 23.8333C8.83333 21.9917 10.325 20.5 12.1667 20.5C14.0083 20.5 15.5 21.9917 15.5 23.8333Z" stroke="#2C66FE" stroke-miterlimit="10" stroke-linecap="round" stroke-linejoin="round"/>
<path d="M13.4098 23.8162H10.9264" stroke="#2C66FE" stroke-miterlimit="10" stroke-linecap="round" stroke-linejoin="round"/>
<path d="M12.1667 22.5996V25.0913" stroke="#2C66FE" stroke-miterlimit="10" stroke-linecap="round" stroke-linejoin="round"/>
<path d="M26.3333 18V22.1667C26.3333 24.6667 24.6667 26.3333 22.1667 26.3333H14.3583C14.6167 26.1167 14.8417 25.85 15.0167 25.55C15.325 25.05 15.5 24.4583 15.5 23.8333C15.5 21.9917 14.0083 20.5 12.1667 20.5C11.1667 20.5 10.275 20.9417 9.66667 21.6333V18C9.66667 15.7333 11.0333 14.15 13.1583 13.8833C13.375 13.85 13.6 13.8333 13.8333 13.8333H22.1667C22.3833 13.8333 22.5917 13.8417 22.7917 13.875C24.9417 14.125 26.3333 15.7167 26.3333 18Z" stroke="#2C66FE" stroke-linecap="round" stroke-linejoin="round"/>
<path d="M26.3333 18.4167H23.8333C22.9167 18.4167 22.1667 19.1667 22.1667 20.0833C22.1667 21 22.9167 21.75 23.8333 21.75H26.3333" stroke="#2C66FE" stroke-linecap="round" stroke-linejoin="round"/>
</svg>
